<?xml version="1.0" encoding="utf-8"?>
<!-- Generator: Adobe Illustrator 18.0.0, SVG Export Plug-In . SVG Version: 6.00 Build 0)  -->
<!DOCTYPE svg PUBLIC "-//W3C//DTD SVG 1.1//EN" "http://www.w3.org/Graphics/SVG/1.1/DTD/svg11.dtd">
<svg version="1.1" id="Layer_1" xmlns="http://www.w3.org/2000/svg" xmlns:xlink="http://www.w3.org/1999/xlink" x="0px" y="0px"
	 viewBox="0 0 454.4 131.4" enable-background="new 0 0 454.4 131.4" xml:space="preserve">
<path d="M371.9,0h12.6v11c21.6,0.6,44.2,0.1,66.2,0.3v11.6c-21.5,0.6-44.1,0.1-66,0.3c-0.5,12.6-0.3,26-0.3,39.2
	c0,13.3-1.1,26.4,2.1,37.1c3.1,10.4,10.8,16.3,20.8,18.7c12.9,3.1,30.9,0.5,39.4-6.8c2.8,2.8,5.3,5.9,7.6,9.2
	c-10.8,8.3-26.7,12.5-44.7,10.3c-16.2-2-27.6-9.2-33.6-22.3c-6.2-13.6-4.5-32.6-4.5-51.5v-56C371.6,0.4,371.6,0,371.9,0"/>
<path d="M104.6,128.8H91.7V80.2c0-20.6,1.7-41.7-9.2-51.5c-11.4-10.2-35.1-9.9-49.4-2.9C22,31.2,14,40.9,12.9,56.8
	c-1.6,23.6,1.2,48,0,72H0V14.2h12.9v13.1C21.5,17.4,34,9.8,51.8,8.7c29.4-1.9,47.7,9.9,51.8,34.7c2.1,12.8,1,27.4,1,42.3V128.8z"/>
<path d="M239.2,75.4H135.6c1.7,22.8,13.9,39.3,35.7,43.1c26.1,4.6,44.4-7.6,52.3-25.2h13.1c-7.8,20.3-22.1,33.3-44.9,37.1
	c-38.5,6.4-65.6-18-69.4-52c-1.4-12.9,0.5-25.5,4.7-35.7c7.5-18.3,24.8-32.4,48.9-33.9c21.4-1.4,37.3,6.9,47.3,17.6
	C234.1,37.8,239.9,53.2,239.2,75.4 M211.6,32.1c-7.7-7.2-19.6-12.5-34.2-11.6c-25.7,1.6-38.5,18.3-41.8,43.1h90.1
	C224.5,50.1,219.7,39.7,211.6,32.1"/>
<path d="M244.4,11.6c4.9-0.6,10.9-0.1,16.3-0.3c11.9,13.6,23.9,27.9,35.7,42.3c0.9,1.1,4.4,6,5,6c0.8,0,4.3-4.9,5.3-6
	c11.4-14,23.4-28.6,34.9-42.3h15c0.4,1.1-1.3,2.2-2.4,3.4c-14.9,17.5-30,36.5-44.9,54.1c16.4,20,34.2,40.1,49.9,59.9
	c-4.6-1.1-10.9,1.4-15.8,0c-1.4-0.4-4.2-4.2-5.8-6c-12.1-14.4-25.2-30.2-36.8-44.2c-14.7,16.3-28.2,33.8-42.8,50.2h-15.2
	c-0.3-1,1.3-2.5,2.4-3.7c15.6-18.2,31.9-37.5,47.6-55.7C276.9,49.8,260.6,30.7,244.4,11.6"/>
</svg>
